name rise42.5664peak47.7979fall81.9185.mot
datacolumns 19
datarows 15
range 13.01828500000000 13.04161700000000
endheader
time	ground_force1_vx	ground_force1_vy	ground_force1_vz	ground_force1_px	ground_force1_py	ground_force1_pz	ground_force2_vx	ground_force2_vy	ground_force2_vz	ground_force2_px	ground_force2_py	ground_force2_pz	ground_torque1_x	ground_torque1_y	ground_torque1_z	ground_torque2_x	ground_torque2_y	ground_torque2_z	
13.01828500000000	13.98628600000000	707.03870500000005	38.07949000000000	0.19805100000000	0.00000000000000	0.09139000000000	0.00000000000000	0.00000000000000	0.00000000000000	0.00000000000000	0.00000000000000	0.00000000000000	0.00000000000000	12.80361500000000	0.00000000000000	0.00000000000000	0.00000000000000	0.00000000000000	
13.01994900000000	13.68976300000000	708.03806899999995	38.16719800000000	0.19715200000000	0.00000000000000	0.09141200000000	0.00000000000000	0.00000000000000	0.00000000000000	0.00000000000000	0.00000000000000	0.00000000000000	0.00000000000000	12.85481900000000	0.00000000000000	0.00000000000000	0.00000000000000	0.00000000000000	
13.02161900000000	13.38019200000000	709.05420400000003	38.25485600000000	0.19623400000000	0.00000000000000	0.09143400000000	0.00000000000000	0.00000000000000	0.00000000000000	0.00000000000000	0.00000000000000	0.00000000000000	0.00000000000000	12.90860500000000	0.00000000000000	0.00000000000000	0.00000000000000	0.00000000000000	
13.02328400000000	13.05749200000000	710.08540200000004	38.34206800000000	0.19529700000000	0.00000000000000	0.09145600000000	0.00000000000000	0.00000000000000	0.00000000000000	0.00000000000000	0.00000000000000	0.00000000000000	0.00000000000000	12.96487400000000	0.00000000000000	0.00000000000000	0.00000000000000	0.00000000000000	
13.02495100000000	12.72161900000000	711.13007200000004	38.42845500000000	0.19434200000000	0.00000000000000	0.09147800000000	0.00000000000000	0.00000000000000	0.00000000000000	0.00000000000000	0.00000000000000	0.00000000000000	0.00000000000000	13.02352600000000	0.00000000000000	0.00000000000000	0.00000000000000	0.00000000000000	
13.02661700000000	12.37256500000000	712.18674299999998	38.51365600000000	0.19337100000000	0.00000000000000	0.09149900000000	0.00000000000000	0.00000000000000	0.00000000000000	0.00000000000000	0.00000000000000	0.00000000000000	0.00000000000000	13.08446400000000	0.00000000000000	0.00000000000000	0.00000000000000	0.00000000000000	
13.02828700000000	12.01035300000000	713.25406599999997	38.59733100000000	0.19238300000000	0.00000000000000	0.09152000000000	0.00000000000000	0.00000000000000	0.00000000000000	0.00000000000000	0.00000000000000	0.00000000000000	0.00000000000000	13.14759200000000	0.00000000000000	0.00000000000000	0.00000000000000	0.00000000000000	
13.02995100000000	11.63504500000000	714.33081300000003	38.67916000000000	0.19138200000000	0.00000000000000	0.09154000000000	0.00000000000000	0.00000000000000	0.00000000000000	0.00000000000000	0.00000000000000	0.00000000000000	0.00000000000000	13.21281500000000	0.00000000000000	0.00000000000000	0.00000000000000	0.00000000000000	
13.03161800000000	11.24673300000000	715.41588300000001	38.75884500000000	0.19036700000000	0.00000000000000	0.09155900000000	0.00000000000000	0.00000000000000	0.00000000000000	0.00000000000000	0.00000000000000	0.00000000000000	0.00000000000000	13.28004000000000	0.00000000000000	0.00000000000000	0.00000000000000	0.00000000000000	
13.03328100000000	10.84554400000000	716.50829399999998	38.83611100000000	0.18934000000000	0.00000000000000	0.09157800000000	0.00000000000000	0.00000000000000	0.00000000000000	0.00000000000000	0.00000000000000	0.00000000000000	0.00000000000000	13.34917700000000	0.00000000000000	0.00000000000000	0.00000000000000	0.00000000000000	
13.03495200000000	10.43163300000000	717.60718899999995	38.91070700000000	0.18830300000000	0.00000000000000	0.09159600000000	0.00000000000000	0.00000000000000	0.00000000000000	0.00000000000000	0.00000000000000	0.00000000000000	0.00000000000000	13.42013300000000	0.00000000000000	0.00000000000000	0.00000000000000	0.00000000000000	
13.03661600000000	10.00519000000000	718.71183199999996	38.98240600000000	0.18725600000000	0.00000000000000	0.09161200000000	0.00000000000000	0.00000000000000	0.00000000000000	0.00000000000000	0.00000000000000	0.00000000000000	0.00000000000000	13.49282000000000	0.00000000000000	0.00000000000000	0.00000000000000	0.00000000000000	
13.03828300000000	9.56643100000000	719.82160499999998	39.05100800000000	0.18620000000000	0.00000000000000	0.09162800000000	0.00000000000000	0.00000000000000	0.00000000000000	0.00000000000000	0.00000000000000	0.00000000000000	0.00000000000000	13.56714900000000	0.00000000000000	0.00000000000000	0.00000000000000	0.00000000000000	
13.03995100000000	9.11560400000000	720.93600800000002	39.11633600000000	0.18513800000000	0.00000000000000	0.09164300000000	0.00000000000000	0.00000000000000	0.00000000000000	0.00000000000000	0.00000000000000	0.00000000000000	0.00000000000000	13.64303200000000	0.00000000000000	0.00000000000000	0.00000000000000	0.00000000000000	
13.04161700000000	8.65298100000000	722.05465500000003	39.17824100000000	0.18407100000000	0.00000000000000	0.09165600000000	0.00000000000000	0.00000000000000	0.00000000000000	0.00000000000000	0.00000000000000	0.00000000000000	0.00000000000000	13.72038300000000	0.00000000000000	0.00000000000000	0.00000000000000	0.00000000000000	
